<svg width="80" height="60" viewBox="0 0 80 60" fill="none" xmlns="http://www.w3.org/2000/svg">
<path d="M74.9707 25.0463C75.0304 25.0897 75.0971 25.1331 75.1656 25.1784C75.4499 25.3321 75.722 25.5528 75.9713 25.8168C75.9836 25.8385 75.9959 25.8385 76.0099 25.8602C76.6752 26.5855 77.0403 27.5315 77.0403 28.5408C77.0403 30.5195 75.7202 32.1456 73.9648 32.3011C73.9033 32.3011 73.8402 32.3228 73.777 32.3228C73.4838 32.3898 73.2381 32.4332 72.8168 32.3464C72.6869 32.3228 72.5534 32.3029 72.4428 32.2577C72.3007 32.2143 72.155 32.1474 71.976 32.0606C71.8794 31.9936 71.7864 31.9502 71.6986 31.8851C71.674 31.8634 71.6547 31.8417 71.6301 31.8417L68.7003 29.5121C68.6792 29.4904 68.6582 29.4687 68.6371 29.4687L51.9009 17.5329C51.7569 17.4442 51.5972 17.3574 51.4322 17.314C50.8178 17.1603 50.1226 17.0933 49.3292 17.1368C49.2397 17.1603 49.1484 17.1603 49.0606 17.1802C48.0969 17.4442 42.7393 18.9835 38.4122 20.2351L38.1156 20.3237C36.7902 20.7415 35.4771 21.1377 34.1746 21.4886L33.0845 21.796C31.4712 22.2573 30.3197 22.61 30.0406 22.6751C29.9212 22.7185 29.8071 22.7637 29.6965 22.8288C27.8042 23.9719 26.6281 26.1261 26.6281 28.4558C26.6281 31.6428 28.7346 34.3251 31.6345 34.8514C31.7188 34.8731 31.8013 34.8731 31.889 34.8731H42.5164C43.352 34.8731 44.0331 35.6654 44.0331 36.6547C44.0331 37.6224 43.3537 38.4128 42.5164 38.4128H31.1518C29.686 38.4562 27.8902 38.4797 25.6591 38.4797C21.2003 38.4797 18.109 36.5896 15.4337 34.5223C14.7351 33.9941 14.0574 33.4461 13.3834 32.8962C10.3851 30.4562 7.29379 27.9294 2.98774 27.4447V16.4531L2.96669 14.827C2.97723 14.7601 2.98422 14.695 2.98598 14.6299C4.52373 14.4544 6.52315 14.0131 8.94915 13.3547C9.00708 13.333 9.06153 13.3113 9.11419 13.2896L9.64785 13.0689C17.5473 10.9364 33.4549 6.496 45.4269 3.15528L45.5129 3.13176C46.2309 2.97802 46.8558 3.02324 47.6334 3.30902L47.7546 3.37413L73.8244 24.1257L74.976 25.0481L74.9707 25.0463ZM39.806 31.6626C39.7762 31.7061 39.7603 31.773 39.741 31.8164H32.0277C30.6041 31.5089 29.586 30.1234 29.586 28.4522C29.586 27.2638 30.1407 26.1659 31.05 25.551C31.5081 25.4189 32.5368 25.1114 33.8868 24.7153L34.9435 24.4078C36.2566 24.0787 37.6152 23.6825 38.9546 23.243L39.2197 23.1779C44.988 21.4849 48.6604 20.4522 49.6417 20.1664C49.9489 20.1664 50.2298 20.1664 50.465 20.2098L53.135 22.1216C47.6019 22.7366 42.6007 26.2763 39.8078 31.6608L39.806 31.6626ZM60.7359 34.6525C60.8799 34.8062 60.9501 34.96 60.9483 35.1571C60.9431 35.3995 60.8307 35.5966 60.6113 35.7504L58.9964 36.8501L58.991 36.8718C58.991 36.8718 58.7067 37.0255 58.4996 37.0255C58.245 37.0255 58.0221 36.9369 57.8272 36.7615C57.5112 36.454 57.1847 36.2116 56.8442 36.0362V39.026C58.7734 39.3118 60.1953 40.0588 61.1029 41.2471C61.6664 41.9941 61.9366 42.9184 61.9173 43.9729C61.8875 45.6875 61.1958 47.0296 59.8547 48.019C59.0033 48.634 57.9992 49.0301 56.8442 49.2055V50.6778C56.8442 51.1607 56.4948 51.5352 56.0613 51.5352H54.6183C54.1829 51.5352 53.8336 51.1607 53.8336 50.6778V49.2055C52.5294 48.9848 51.3585 48.4368 50.3193 47.556C49.6768 47.0278 49.1624 46.4562 48.7815 45.8847C48.6709 45.7309 48.613 45.5772 48.6112 45.4235C48.6077 45.1594 48.7288 44.9405 48.9781 44.7868L50.4474 43.8408H50.4544C50.4544 43.8408 50.7388 43.6871 50.8828 43.6871C51.1461 43.6871 51.3602 43.8191 51.5182 44.038C52.245 44.8953 53.0156 45.4886 53.8336 45.8196V42.1044C51.9465 41.7752 50.5791 41.0047 49.7382 39.7531C49.2362 39.0278 48.9764 38.1922 48.9623 37.2462C48.9307 35.3127 49.8786 33.8621 51.8166 32.8944C52.4152 32.5869 53.0893 32.3898 53.8336 32.2794V30.6317C53.8336 30.1686 54.1829 29.7743 54.6183 29.7743H56.0613C56.4948 29.7743 56.8442 30.1705 56.8442 30.6317V32.3228C58.4311 32.6303 59.7283 33.4008 60.7359 34.6543V34.6525ZM54.8886 57.9525C46.7961 57.9525 40.1044 50.9618 39.5585 42.1696H43.3607C45.5498 42.1696 47.4176 40.652 48.1355 38.5431C48.2918 39.2014 48.5586 39.7965 48.929 40.3445C49.7909 41.598 51.1074 42.477 52.8506 42.9166V43.9928C52.661 43.8173 52.4749 43.6183 52.2923 43.3995C51.9483 42.9365 51.4498 42.6742 50.8863 42.6742C50.5826 42.6742 50.2561 42.8062 50.0367 42.9166C49.9998 42.9383 49.9629 42.96 49.9278 42.9817L48.4603 43.9276H48.4585C47.9126 44.2785 47.6177 44.8067 47.63 45.4452C47.637 45.8196 47.7616 46.1705 47.9933 46.4779C48.4269 47.1363 49.0027 47.7531 49.6996 48.3464C50.6422 49.1386 51.6991 49.7083 52.8524 50.0393V50.676C52.8524 51.7088 53.6458 52.5661 54.6236 52.5661H56.0665C57.0407 52.5661 57.8378 51.7088 57.8378 50.676V50.0393C58.8015 49.797 59.6704 49.381 60.4287 48.8528C62.0367 47.6663 62.8723 46.0402 62.9074 43.9946C62.9302 42.6977 62.5879 41.5546 61.884 40.6303C60.9606 39.4221 59.5984 38.5865 57.836 38.1686V37.9263C58.0449 37.9932 58.2643 38.0366 58.4942 38.0366C58.9208 38.0583 59.3123 37.8395 59.4668 37.7508C59.4948 37.7291 59.5229 37.7291 59.5475 37.7074L61.1642 36.586C61.6505 36.2568 61.9262 35.7504 61.9367 35.1788C61.9437 34.7176 61.7804 34.2998 61.4714 33.9706C60.5007 32.7841 59.2807 31.9484 57.836 31.5089V30.6299C57.836 29.5971 57.0408 28.7614 56.0648 28.7614H54.6218C53.644 28.7614 52.8506 29.5971 52.8506 30.6299V31.442C52.3275 31.574 51.8377 31.7495 51.3866 31.9918C49.5908 32.8709 48.6973 34.0791 48.2848 35.2674C47.9091 33.73 46.919 32.3879 45.5498 31.6626C44.8459 31.3118 44.1103 31.1128 43.3607 31.1128H42.4163C45.2917 26.7158 49.9401 24.0352 54.8904 24.0352C55.1168 24.0352 55.338 24.0569 55.5592 24.0786L67.4171 32.52L68.6705 33.5094C69.729 35.8607 70.2679 38.3893 70.2679 41.0047C70.2679 50.3468 63.3709 57.9525 54.8904 57.9525H54.8886ZM48.9623 0.579649L48.7552 0.49102C48.7271 0.49102 48.7025 0.469316 48.6744 0.469316C47.3543 -0.0371277 46.1484 -0.123947 44.8599 0.161832C44.8318 0.161832 44.8038 0.161832 44.7739 0.161832L44.644 0.205242C32.6334 3.56948 16.6643 8.0298 8.80524 10.1406C8.74555 10.1623 8.68762 10.184 8.62969 10.2075L8.0978 10.4282C5.16799 11.2421 2.828 11.6816 1.50265 11.6816C0.684626 11.6816 0.0245999 12.3635 0.0245999 13.1991V14.3206C0.00880112 14.4092 0 14.496 0 14.6063L0.0245999 28.6312C-0.045617 29.0273 0.045665 29.4452 0.287914 29.796C0.565271 30.1705 1.0094 30.411 1.47985 30.411C5.56473 30.411 8.33651 32.6755 11.5454 35.291C12.2406 35.8625 12.9428 36.4341 13.666 36.9839C16.5993 39.2268 20.3208 41.5347 25.6556 41.5347C27.9165 41.5347 29.7457 41.513 31.1939 41.4696H37.5608C37.7855 51.7124 45.5006 60 54.8904 60C64.4557 60 72.2393 51.47 72.2393 41.0084C72.2393 38.9862 71.9426 37.0074 71.3668 35.0956C71.4212 35.1173 71.4774 35.139 71.5336 35.1625C71.7794 35.2494 72.0409 35.3163 72.3463 35.3597C73.1257 35.4917 73.7015 35.47 74.3299 35.338C77.5687 34.9654 80 32.0859 80 28.5462C80 26.7664 79.3575 25.0952 78.1901 23.7983C78.1673 23.7766 78.141 23.7549 78.1164 23.7332C77.6863 23.272 77.2071 22.8758 76.698 22.5684L49.3924 0.827444C49.2607 0.71892 49.115 0.651998 48.964 0.585075L48.9623 0.579649Z" fill="#008B8A"/>
</svg>
