<svg width="30" height="30" viewBox="0 0 30 30" fill="none" xmlns="http://www.w3.org/2000/svg">
<mask id="path-1-inside-1" fill="white">
<path d="M15 1.90313C22.2217 1.90313 28.0966 7.77733 28.0966 14.998C28.0966 22.2227 22.2217 28.0968 15 28.0968C7.77639 28.0968 1.90137 22.2227 1.90137 14.998C1.90137 7.77532 7.77639 1.90313 15 1.90313ZM15 30C23.2708 30 30 23.2717 30 14.998C30 6.72829 23.2708 0 15 0C6.72922 0 0 6.72829 0 14.998C0 23.2697 6.72922 30 15 30Z"/>
</mask>
<path d="M15 1.90313C22.2217 1.90313 28.0966 7.77733 28.0966 14.998C28.0966 22.2227 22.2217 28.0968 15 28.0968C7.77639 28.0968 1.90137 22.2227 1.90137 14.998C1.90137 7.77532 7.77639 1.90313 15 1.90313ZM15 30C23.2708 30 30 23.2717 30 14.998C30 6.72829 23.2708 0 15 0C6.72922 0 0 6.72829 0 14.998C0 23.2697 6.72922 30 15 30Z" fill="#008B8A"/>
<path d="M15 4.90313C20.5652 4.90313 25.0966 9.43456 25.0966 14.998H31.0966C31.0966 6.1201 23.8781 -1.09687 15 -1.09687V4.90313ZM25.0966 14.998C25.0966 20.566 20.5646 25.0968 15 25.0968V31.0968C23.8787 31.0968 31.0966 23.8793 31.0966 14.998H25.0966ZM15 25.0968C9.43315 25.0968 4.90137 20.5657 4.90137 14.998H-1.09863C-1.09863 23.8796 6.11963 31.0968 15 31.0968V25.0968ZM4.90137 14.998C4.90137 9.43316 9.43226 4.90313 15 4.90313V-1.09687C6.12052 -1.09687 -1.09863 6.11748 -1.09863 14.998H4.90137ZM15 33C24.9278 33 33 24.9284 33 14.998H27C27 21.615 21.6138 27 15 27V33ZM33 14.998C33 5.07107 24.9273 -3 15 -3V3C21.6143 3 27 8.38552 27 14.998H33ZM15 -3C5.07275 -3 -3 5.07105 -3 14.998H3C3 8.38554 8.38569 3 15 3V-3ZM-3 14.998C-3 24.9261 5.07197 33 15 33V27C8.38648 27 3 21.6132 3 14.998H-3Z" fill="#018B8A" mask="url(#path-1-inside-1)"/>
</svg>
