<svg width="30" height="30" viewBox="0 0 30 30" fill="none" xmlns="http://www.w3.org/2000/svg">
<path d="M28.6923 26.9759L21.993 20.2766C23.6515 18.2389 24.65 15.6357 24.65 12.8C24.65 6.2581 19.3419 0.95 12.8 0.95C6.25237 0.95 0.95 6.25812 0.95 12.8C0.95 19.3419 6.25237 24.65 12.8 24.65C15.6357 24.65 18.2332 23.6572 20.2709 21.9987L26.9704 28.6925C26.9704 28.6925 26.9704 28.6925 26.9704 28.6925C27.447 29.1691 28.2156 29.1692 28.6923 28.6927C29.1692 28.2217 29.1692 27.4469 28.6923 26.9759ZM12.8 22.2014C7.61045 22.2014 3.39286 17.9838 3.39286 12.8C3.39286 7.61617 7.61049 3.39286 12.8 3.39286C17.9838 3.39286 22.2071 7.61619 22.2071 12.8C22.2071 17.9838 17.9839 22.2014 12.8 22.2014Z" fill="#018B8A" stroke="#018B8A" stroke-width="0.1"/>
</svg>
