<svg width="40" height="39" viewBox="0 0 40 39" fill="none" xmlns="http://www.w3.org/2000/svg">
<path d="M39.1319 17.3682C39.9193 16.6009 40.1972 15.4747 39.8576 14.4278C39.5172 13.381 38.6305 12.6337 37.5412 12.4751L27.8559 11.0678C27.4434 11.0077 27.087 10.749 26.9027 10.3749L22.5727 1.59873C22.0865 0.61274 21.0997 0 20 0C18.9011 0 17.9143 0.61274 17.4281 1.59873L13.0973 10.3749C12.913 10.749 12.5558 11.0077 12.1433 11.0678L2.458 12.4759C1.36949 12.6337 0.482817 13.381 0.142406 14.4278C-0.197204 15.4747 0.0807315 16.6009 0.868083 17.3682L7.87575 24.1988C8.17451 24.4904 8.31148 24.9101 8.24099 25.3202L6.58699 34.9662C6.40117 36.05 6.8377 37.1241 7.72757 37.7712C8.61664 38.4192 9.77404 38.5033 10.7488 37.9899L19.4105 33.4356C19.7797 33.2418 20.2203 33.2418 20.5895 33.4356L29.252 37.9899C29.6749 38.2126 30.133 38.3223 30.5888 38.3223C31.1807 38.3223 31.7702 38.1373 32.2732 37.7712C33.1631 37.1241 33.5996 36.05 33.4138 34.9662L31.759 25.321C31.6885 24.9101 31.8255 24.4912 32.1242 24.1996L39.1319 17.3682ZM30.1811 25.5917L31.8351 35.237C31.9184 35.7224 31.7302 36.1861 31.3313 36.4761C30.9316 36.7652 30.4342 36.8005 29.9977 36.573L21.3352 32.0179C20.9179 31.7992 20.4582 31.6887 20 31.6887C19.5418 31.6887 19.0829 31.7992 18.6648 32.0187L10.0039 36.573C9.56579 36.8005 9.06839 36.7652 8.66951 36.4761C8.27063 36.1861 8.0832 35.7232 8.1657 35.237L9.8197 25.5917C9.97909 24.661 9.67072 23.711 8.9947 23.0527L1.98623 16.2212C1.63301 15.8768 1.51286 15.3914 1.66585 14.9228C1.81803 14.4535 2.20009 14.1315 2.68788 14.0602L12.3724 12.6529C13.3071 12.5175 14.1153 11.9312 14.5326 11.0838L18.8634 2.30759C19.0813 1.86545 19.5066 1.60194 19.9992 1.60194C20.4926 1.60194 20.9171 1.86545 21.1358 2.30759L25.4666 11.0838C25.8839 11.9312 26.6913 12.5175 27.626 12.6529L37.3113 14.0602C37.7991 14.1315 38.1812 14.4535 38.3334 14.9228C38.4855 15.3914 38.3662 15.8768 38.013 16.2212L31.0053 23.0519C30.3293 23.711 30.0209 24.6602 30.1811 25.5917Z" fill="#008B8A"/>
</svg>
